<svg xmlns="http://www.w3.org/2000/svg" width="600" height="270" viewBox="0 0 600 270"><path fill-rule="evenodd" clip-rule="evenodd" fill="#E89619" d="M334.65 22.014c.44-1.79 2.54-2.98 4.403-2.506 1.927.487 2.93 2.125 2.496 4.067-.473 2.11-2.09 3.15-4.16 2.67-1.91-.446-3.19-2.42-2.74-4.23zM118.848 53.746c.53-2.04 2.29-3.05 4.302-2.473 1.903.542 2.86 2.203 2.387 4.146-.487 2.012-2.305 3.166-4.228 2.687-1.97-.492-3-2.315-2.462-4.36zM304.4 179.985c3.627.925 5.402 3.97 4.45 7.62-.88 3.35-4.146 5.325-7.5 4.535-3.413-.802-5.46-4.238-4.587-7.693.905-3.584 3.994-5.39 7.637-4.462z"/><path stroke="#E89619" stroke-miterlimit="10" fill="none" d="M338.104 22.882L390.12 84.35l-87.287 101.678L122.18 54.878M31.918 64.127l78.39 187.747 62.808-48.326 63.72-158.72"/><path fill-rule="evenodd" clip-rule="evenodd" fill="#E89619" d="M108.824 257.986c-3.412-.802-5.46-4.238-4.587-7.693.905-3.584 3.994-5.39 7.637-4.462 3.627.926 5.402 3.972 4.45 7.622-.88 3.348-4.146 5.323-7.5 4.534"/><path fill-rule="evenodd" clip-rule="evenodd" fill="#E89619" d="M238.402 38.783c3.627.925 5.402 3.97 4.45 7.62-.88 3.35-4.146 5.325-7.5 4.535-3.413-.802-5.46-4.238-4.587-7.693.905-3.584 3.994-5.39 7.637-4.462zM174.683 197.505c3.627.925 5.402 3.97 4.45 7.62-.88 3.35-4.146 5.325-7.5 4.535-3.413-.802-5.46-4.238-4.587-7.693.905-3.584 3.994-5.39 7.637-4.462z"/><path clip-rule="evenodd" stroke="#E89619" stroke-miterlimit="10" fill="none" d="M280.15 77.535L447.405 23.36l35.748 54.595"/><path fill-rule="evenodd" clip-rule="evenodd" fill="#E89619" d="M443.76 22.78c.53-2.04 2.29-3.05 4.302-2.473 1.903.542 2.86 2.203 2.387 4.146-.488 2.013-2.306 3.167-4.228 2.688-1.97-.49-3-2.314-2.462-4.36zM561.13 247.053c.44-1.79 2.54-2.98 4.403-2.506 1.927.487 2.93 2.125 2.496 4.067-.473 2.11-2.09 3.15-4.16 2.67-1.91-.446-3.19-2.42-2.74-4.23z"/><path clip-rule="evenodd" stroke="#E89619" stroke-miterlimit="10" fill="none" d="M563.524 246.168l-80.37-168.633"/><linearGradient id="a" gradientUnits="userSpaceOnUse" x1="294.348" y1="172.546" x2="294.348" y2="62.545"><stop offset="0" stop-color="#fff" stop-opacity="0"/><stop offset=".072" stop-color="#fff" stop-opacity=".141"/><stop offset=".506" stop-color="#fff"/><stop offset=".93" stop-color="#fff" stop-opacity=".141"/><stop offset="1" stop-color="#fff" stop-opacity="0"/></linearGradient><path fill-rule="evenodd" clip-rule="evenodd" fill="url(#a)" d="M25.848 62.546h537v110h-537z"/><g><g><path fill-rule="evenodd" clip-rule="evenodd" fill="#E89619" d="M436.144 114.488c-.542 2.084-2.34 3.116-4.396 2.527-1.945-.554-2.92-2.25-2.44-4.236.5-2.058 2.356-3.237 4.32-2.747 2.014.5 3.066 2.364 2.516 4.455zM422.965 124.653c-.45 1.828-2.594 3.045-4.5 2.56-1.968-.498-2.992-2.17-2.55-4.156.482-2.156 2.136-3.22 4.248-2.728 1.953.455 3.26 2.472 2.802 4.323z"/><path clip-rule="evenodd" stroke="#E89619" stroke-miterlimit="10" fill="none" d="M419.435 123.765l11.812 11.536 1.49-21.75"/><path fill-rule="evenodd" clip-rule="evenodd" fill="#0071BC" d="M433.12 130.24c3.194.814 4.757 3.497 3.92 6.712-.777 2.95-3.653 4.69-6.608 3.994-3.006-.706-4.81-3.733-4.04-6.777.797-3.158 3.518-4.75 6.727-3.93z"/></g><path stroke="#036093" stroke-width="2" stroke-miterlimit="10" d="M421.75 75.49h-4.137l.806 1.074.805 1.074.806 1.074.807 1.074V102.816s-.784 2.05-1.964 5.143-2.756 7.23-4.34 11.406-3.176 8.39-4.387 11.638c-1.21 3.247-2.043 5.527-2.106 5.834-.278.77-.484 1.557-.61 2.323-.125.767-.17 1.515-.13 2.21.043.695.172 1.337.396 1.894.224.556.544 1.027.966 1.378h39.012c1.69-1.405 1.733-4.72.622-7.803-.25-1.228-12.797-34.023-12.797-34.023V79.784l3.223-4.294H421.75" fill="none"/></g><g fill="#0071BC" font-family="'SourceSansPro-Regular'" font-size="100"><text transform="translate(470.484 144.351)">js</text><text transform="translate(32.44 145)">alchemy</text></g><path fill-rule="evenodd" clip-rule="evenodd" fill="#E89619" d="M391.686 78.306c3.627.925 5.402 3.97 4.45 7.62-.88 3.35-4.146 5.325-7.5 4.535-3.413-.8-5.46-4.237-4.587-7.692.905-3.584 3.993-5.39 7.636-4.462z"/><path fill-rule="evenodd" clip-rule="evenodd" fill="#E89619" d="M33.485 58.084c3.627.925 5.402 3.97 4.45 7.62-.88 3.35-4.146 5.325-7.5 4.535-3.413-.803-5.46-4.24-4.587-7.694.905-3.584 3.994-5.39 7.637-4.462z"/><path fill-rule="evenodd" clip-rule="evenodd" fill="#E89619" d="M281.717 72.02c3.627.926 5.402 3.972 4.45 7.622-.88 3.35-4.146 5.324-7.5 4.534-3.413-.802-5.46-4.238-4.587-7.693.906-3.584 3.995-5.39 7.637-4.462z"/><path fill-rule="evenodd" clip-rule="evenodd" fill="#E89619" d="M484.72 73.912c3.627.925 5.402 3.97 4.45 7.62-.88 3.35-4.146 5.325-7.5 4.535-3.412-.802-5.46-4.238-4.587-7.693.905-3.584 3.994-5.39 7.637-4.462z"/></svg>