<svg xmlns="http://www.w3.org/2000/svg" width="600" height="270" viewBox="0 0 600 270"><path fill-rule="evenodd" clip-rule="evenodd" fill="#E89619" d="M334.65 22.014c.441-1.789 2.539-2.98 4.403-2.506 1.927.487 2.929 2.125 2.496 4.067-.472 2.11-2.09 3.151-4.158 2.67-1.911-.446-3.19-2.42-2.741-4.231zM118.848 53.746c.531-2.04 2.29-3.05 4.302-2.473 1.903.542 2.859 2.203 2.387 4.146-.487 2.013-2.305 3.167-4.228 2.688-1.969-.492-2.999-2.315-2.461-4.361zM304.4 179.985c3.627.925 5.402 3.971 4.45 7.621-.881 3.349-4.146 5.324-7.5 4.534-3.413-.802-5.46-4.238-4.587-7.693.905-3.584 3.994-5.39 7.637-4.462z"/><path stroke="#E89619" stroke-miterlimit="10" fill="none" d="M338.104 22.882l52.015 61.468-87.286 101.678-180.652-131.149M31.918 64.127l78.389 187.747 62.809-48.326 63.719-158.721"/><path fill-rule="evenodd" clip-rule="evenodd" fill="#E89619" d="M108.824 257.986c-3.412-.802-5.46-4.238-4.587-7.693.905-3.584 3.994-5.39 7.637-4.462 3.627.925 5.402 3.971 4.45 7.621-.881 3.348-4.146 5.323-7.5 4.534"/><path fill-rule="evenodd" clip-rule="evenodd" fill="#E89619" d="M238.402 38.783c3.627.925 5.402 3.971 4.45 7.621-.881 3.349-4.146 5.324-7.5 4.534-3.413-.802-5.46-4.238-4.587-7.693.905-3.584 3.994-5.39 7.637-4.462zM174.683 197.505c3.627.925 5.402 3.971 4.45 7.621-.881 3.349-4.146 5.324-7.5 4.534-3.413-.802-5.46-4.238-4.587-7.693.905-3.584 3.994-5.391 7.637-4.462z"/><path clip-rule="evenodd" stroke="#E89619" stroke-miterlimit="10" fill="none" d="M280.15 77.535l167.255-54.174 35.748 54.594"/><path fill-rule="evenodd" clip-rule="evenodd" fill="#E89619" d="M443.76 22.78c.531-2.04 2.289-3.05 4.302-2.473 1.903.542 2.859 2.203 2.387 4.146-.487 2.013-2.305 3.167-4.227 2.688-1.97-.492-3-2.315-2.462-4.361zM561.13 247.053c.441-1.789 2.539-2.98 4.403-2.506 1.927.487 2.929 2.125 2.496 4.067-.472 2.11-2.09 3.151-4.158 2.67-1.911-.446-3.19-2.42-2.741-4.231z"/><path clip-rule="evenodd" stroke="#E89619" stroke-miterlimit="10" fill="none" d="M563.524 246.168l-80.371-168.633"/><linearGradient id="a" gradientUnits="userSpaceOnUse" x1="294.348" y1="172.546" x2="294.348" y2="62.545"><stop offset="0" stop-color="#fff" stop-opacity="0"/><stop offset=".072" stop-color="#fff" stop-opacity=".141"/><stop offset=".506" stop-color="#fff"/><stop offset=".93" stop-color="#fff" stop-opacity=".141"/><stop offset="1" stop-color="#fff" stop-opacity="0"/></linearGradient><path fill-rule="evenodd" clip-rule="evenodd" fill="url(#a)" d="M25.848 62.546h537v110h-537z"/><g><g><path fill-rule="evenodd" clip-rule="evenodd" fill="#E89619" d="M436.144 114.488c-.542 2.084-2.339 3.116-4.396 2.527-1.945-.554-2.921-2.251-2.439-4.236.498-2.057 2.355-3.236 4.32-2.746 2.013.501 3.065 2.364 2.515 4.455zM422.965 124.653c-.451 1.828-2.594 3.045-4.499 2.56-1.969-.498-2.993-2.171-2.551-4.156.482-2.156 2.136-3.22 4.248-2.728 1.953.456 3.26 2.473 2.802 4.324z"/><path clip-rule="evenodd" stroke="#E89619" stroke-miterlimit="10" fill="none" d="M419.435 123.765l11.812 11.536 1.491-21.751"/><path fill-rule="evenodd" clip-rule="evenodd" fill="#0071BC" d="M433.119 130.239c3.195.815 4.758 3.498 3.92 6.713-.776 2.95-3.652 4.69-6.607 3.994-3.006-.706-4.81-3.733-4.041-6.777.798-3.157 3.519-4.748 6.728-3.93z"/></g><path stroke="#036093" stroke-width="2" stroke-miterlimit="10" d="M421.751 75.49h-4.138l.806 1.074.806 1.074.806 1.074.806 1.074v23.029999999999998s-.784 2.05-1.964 5.143c-1.18 3.094-2.756 7.231-4.34 11.407s-3.176 8.39-4.387 11.638c-1.211 3.247-2.043 5.527-2.106 5.834-.278.771-.484 1.557-.609 2.323-.126.766-.172 1.514-.13 2.209.042.695.171 1.337.395 1.894.224.556.544 1.027.966 1.378h39.012c1.689-1.405 1.733-4.719.622-7.803-.251-1.227-12.797-34.022-12.797-34.022v-23.033l3.224-4.294h-16.972" fill="none"/></g><g fill="#0071BC" font-family="'SourceSansPro-Regular'" font-size="100"><text transform="translate(470.484 144.351)">js</text><text transform="translate(32.44 145)">alchemy</text></g><path fill-rule="evenodd" clip-rule="evenodd" fill="#E89619" d="M391.686 78.306c3.627.925 5.402 3.971 4.45 7.621-.881 3.349-4.146 5.324-7.5 4.534-3.413-.802-5.46-4.238-4.587-7.693.906-3.584 3.994-5.39 7.637-4.462z"/><path fill-rule="evenodd" clip-rule="evenodd" fill="#E89619" d="M33.485 58.084c3.627.925 5.402 3.971 4.45 7.621-.881 3.349-4.146 5.324-7.5 4.534-3.413-.802-5.46-4.238-4.587-7.693.905-3.584 3.994-5.391 7.637-4.462z"/><path fill-rule="evenodd" clip-rule="evenodd" fill="#E89619" d="M281.717 72.021c3.627.925 5.402 3.971 4.45 7.621-.881 3.349-4.146 5.324-7.5 4.534-3.413-.802-5.46-4.238-4.587-7.693.906-3.584 3.995-5.39 7.637-4.462z"/><path fill-rule="evenodd" clip-rule="evenodd" fill="#E89619" d="M484.72 73.912c3.627.925 5.402 3.971 4.45 7.621-.881 3.349-4.146 5.324-7.5 4.534-3.412-.802-5.46-4.238-4.587-7.693.905-3.584 3.994-5.391 7.637-4.462z"/></svg>