<?xml version="1.0" encoding="utf-8"?>
<!-- Generator: Adobe Illustrator 17.0.2, SVG Export Plug-In . SVG Version: 6.00 Build 0)  -->
<!DOCTYPE svg PUBLIC "-//W3C//DTD SVG 1.1//EN" "http://www.w3.org/Graphics/SVG/1.1/DTD/svg11.dtd">
<svg version="1.1" id="Layer_1" xmlns="http://www.w3.org/2000/svg" xmlns:xlink="http://www.w3.org/1999/xlink" x="0px" y="0px"
	 width="600px" height="270px" viewBox="0 0 600 270" enable-background="new 0 0 600 270" xml:space="preserve">
<g>
	<g>
		<path fill-rule="evenodd" clip-rule="evenodd" fill="#E89619" d="M334.65,22.014c0.441-1.789,2.539-2.98,4.403-2.506
			c1.927,0.487,2.929,2.125,2.496,4.067c-0.472,2.11-2.09,3.151-4.158,2.67C335.48,25.799,334.201,23.825,334.65,22.014z"/>
	</g>
	<g>
		<path fill-rule="evenodd" clip-rule="evenodd" fill="#E89619" d="M118.848,53.746c0.531-2.04,2.29-3.05,4.302-2.473
			c1.903,0.542,2.859,2.203,2.387,4.146c-0.487,2.013-2.305,3.167-4.228,2.688C119.34,57.615,118.31,55.792,118.848,53.746z"/>
	</g>
	<g>
		<path fill-rule="evenodd" clip-rule="evenodd" fill="#E89619" d="M304.4,179.985c3.627,0.925,5.402,3.971,4.45,7.621
			c-0.881,3.349-4.146,5.324-7.5,4.534c-3.413-0.802-5.46-4.238-4.587-7.693C297.668,180.863,300.757,179.057,304.4,179.985z"/>
	</g>
	<polyline fill="none" stroke="#E89619" stroke-miterlimit="10" points="338.104,22.882 390.119,84.35 302.833,186.028 
		122.181,54.879 	"/>
</g>
<g>
	<polyline fill="none" stroke="#E89619" stroke-miterlimit="10" points="31.918,64.127 110.307,251.874 173.116,203.548 
		236.835,44.827 	"/>
	<path fill-rule="evenodd" clip-rule="evenodd" fill="#E89619" d="M108.824,257.986c-3.412-0.802-5.46-4.238-4.587-7.693
		c0.905-3.584,3.994-5.39,7.637-4.462c3.627,0.925,5.402,3.971,4.45,7.621C115.443,256.8,112.178,258.775,108.824,257.986"/>
	<g>
		<path fill-rule="evenodd" clip-rule="evenodd" fill="#E89619" d="M238.402,38.783c3.627,0.925,5.402,3.971,4.45,7.621
			c-0.881,3.349-4.146,5.324-7.5,4.534c-3.413-0.802-5.46-4.238-4.587-7.693C231.67,39.661,234.759,37.855,238.402,38.783z"/>
	</g>
	<g>
		<path fill-rule="evenodd" clip-rule="evenodd" fill="#E89619" d="M174.683,197.505c3.627,0.925,5.402,3.971,4.45,7.621
			c-0.881,3.349-4.146,5.324-7.5,4.534c-3.413-0.802-5.46-4.238-4.587-7.693C167.951,198.383,171.04,196.576,174.683,197.505z"/>
	</g>
</g>
<g>
	<polyline fill-rule="evenodd" clip-rule="evenodd" fill="none" stroke="#E89619" stroke-miterlimit="10" points="280.15,77.535 
		447.405,23.361 483.153,77.955 	"/>
	<path fill-rule="evenodd" clip-rule="evenodd" fill="#E89619" d="M443.76,22.78c0.531-2.04,2.289-3.05,4.302-2.473
		c1.903,0.542,2.859,2.203,2.387,4.146c-0.487,2.013-2.305,3.167-4.227,2.688C444.252,26.649,443.222,24.826,443.76,22.78z"/>
	<g>
		<path fill-rule="evenodd" clip-rule="evenodd" fill="#E89619" d="M561.13,247.053c0.441-1.789,2.539-2.98,4.403-2.506
			c1.927,0.487,2.929,2.125,2.496,4.067c-0.472,2.11-2.09,3.151-4.158,2.67C561.96,250.838,560.681,248.864,561.13,247.053z"/>
	</g>
	
		<line fill-rule="evenodd" clip-rule="evenodd" fill="none" stroke="#E89619" stroke-miterlimit="10" x1="563.524" y1="246.168" x2="483.153" y2="77.535"/>
</g>
<linearGradient id="white_text_background_gradient_1_" gradientUnits="userSpaceOnUse" x1="294.3478" y1="172.5455" x2="294.3478" y2="62.5455">
	<stop  offset="0" style="stop-color:#FFFFFF;stop-opacity:0"/>
	<stop  offset="0.0716" style="stop-color:#FFFFFF;stop-opacity:0.1413"/>
	<stop  offset="0.5064" style="stop-color:#FFFFFF"/>
	<stop  offset="0.9302" style="stop-color:#FFFFFF;stop-opacity:0.1413"/>
	<stop  offset="1" style="stop-color:#FFFFFF;stop-opacity:0"/>
</linearGradient>
<rect id="white_text_background_gradient" x="25.848" y="62.546" fill-rule="evenodd" clip-rule="evenodd" fill="url(#white_text_background_gradient_1_)" width="537" height="110"/>
<g id="Flask">
	<g id="flask_connections">
		<g>
			<path fill-rule="evenodd" clip-rule="evenodd" fill="#E89619" d="M436.144,114.488c-0.542,2.084-2.339,3.116-4.396,2.527
				c-1.945-0.554-2.921-2.251-2.439-4.236c0.498-2.057,2.355-3.236,4.32-2.746C435.642,110.534,436.694,112.397,436.144,114.488z"/>
		</g>
		<g>
			<path fill-rule="evenodd" clip-rule="evenodd" fill="#E89619" d="M422.965,124.653c-0.451,1.828-2.594,3.045-4.499,2.56
				c-1.969-0.498-2.993-2.171-2.551-4.156c0.482-2.156,2.136-3.22,4.248-2.728C422.116,120.785,423.423,122.802,422.965,124.653z"/>
		</g>
		<polyline fill-rule="evenodd" clip-rule="evenodd" fill="none" stroke="#E89619" stroke-miterlimit="10" points="419.435,123.765 
			431.247,135.301 432.738,113.55 		"/>
		<g>
			<path fill-rule="evenodd" clip-rule="evenodd" fill="#0071BC" d="M433.119,130.239c3.195,0.815,4.758,3.498,3.92,6.713
				c-0.776,2.95-3.652,4.69-6.607,3.994c-3.006-0.706-4.81-3.733-4.041-6.777C427.189,131.012,429.91,129.421,433.119,130.239z"/>
		</g>
	</g>
	<path id="flask_outline" fill="none" stroke="#036093" stroke-width="2" stroke-miterlimit="10" d="M421.751,75.49h-4.138
		l0.806,1.074l0.806,1.074l0.806,1.074l0.806,1.074v5.758V91.3v5.758v5.758c0,0-0.784,2.05-1.964,5.143
		c-1.18,3.094-2.756,7.231-4.34,11.407s-3.176,8.39-4.387,11.638c-1.211,3.247-2.043,5.527-2.106,5.834
		c-0.278,0.771-0.484,1.557-0.609,2.323c-0.126,0.766-0.172,1.514-0.13,2.209c0.042,0.695,0.171,1.337,0.395,1.894
		c0.224,0.556,0.544,1.027,0.966,1.378h12.152h26.86c1.689-1.405,1.733-4.719,0.622-7.803c-0.251-1.227-12.797-34.022-12.797-34.022
		V79.784l3.224-4.294h-12.833H421.751"/>
</g>
<g id="alchemy_js_text">
	<text transform="matrix(1 0 0 1 470.4843 144.3508)" fill="#0071BC" font-family="'SourceSansPro-Regular'" font-size="100">js</text>
	<text transform="matrix(1 0 0 1 32.4404 144.9999)" fill="#0071BC" font-family="'SourceSansPro-Regular'" font-size="100">alchemy </text>
</g>
<g id="y-bubble">
	<path fill-rule="evenodd" clip-rule="evenodd" fill="#E89619" d="M391.686,78.306c3.627,0.925,5.402,3.971,4.45,7.621
		c-0.881,3.349-4.146,5.324-7.5,4.534c-3.413-0.802-5.46-4.238-4.587-7.693C384.955,79.184,388.043,77.378,391.686,78.306z"/>
</g>
<g id="a-bubble">
	<path fill-rule="evenodd" clip-rule="evenodd" fill="#E89619" d="M33.485,58.084c3.627,0.925,5.402,3.971,4.45,7.621
		c-0.881,3.349-4.146,5.324-7.5,4.534c-3.413-0.802-5.46-4.238-4.587-7.693C26.753,58.962,29.842,57.155,33.485,58.084z"/>
</g>
<path id="m-bubble" fill-rule="evenodd" clip-rule="evenodd" fill="#E89619" d="M281.717,72.021c3.627,0.925,5.402,3.971,4.45,7.621
	c-0.881,3.349-4.146,5.324-7.5,4.534c-3.413-0.802-5.46-4.238-4.587-7.693C274.986,72.899,278.075,71.093,281.717,72.021z"/>
<g id="j-bubble">
	<path fill-rule="evenodd" clip-rule="evenodd" fill="#E89619" d="M484.72,73.912c3.627,0.925,5.402,3.971,4.45,7.621
		c-0.881,3.349-4.146,5.324-7.5,4.534c-3.412-0.802-5.46-4.238-4.587-7.693C477.988,74.79,481.077,72.983,484.72,73.912z"/>
</g>
</svg>
