<?xml version="1.0" encoding="utf-8"?>
<!-- Generator: Adobe Illustrator 17.0.2, SVG Export Plug-In . SVG Version: 6.00 Build 0)  -->
<!DOCTYPE svg PUBLIC "-//W3C//DTD SVG 1.1//EN" "http://www.w3.org/Graphics/SVG/1.1/DTD/svg11.dtd">
<svg version="1.1" id="Layer_1" xmlns="http://www.w3.org/2000/svg" xmlns:xlink="http://www.w3.org/1999/xlink" x="0px" y="0px"
	 width="1280px" height="800px" viewBox="0 0 1280 800" enable-background="new 0 0 1280 800" xml:space="preserve">
<g>
	<g>
		<path fill-rule="evenodd" clip-rule="evenodd" fill="#E89619" d="M672.802,296.468c0.441-1.789,2.539-2.98,4.403-2.506
			c1.927,0.487,2.929,2.125,2.496,4.067c-0.472,2.11-2.09,3.151-4.158,2.67C673.632,300.254,672.353,298.28,672.802,296.468z"/>
	</g>
	<g>
		<path fill-rule="evenodd" clip-rule="evenodd" fill="#E89619" d="M457,328.2c0.531-2.04,2.289-3.05,4.302-2.473
			c1.903,0.542,2.859,2.203,2.387,4.146c-0.487,2.013-2.305,3.167-4.228,2.688C457.492,332.069,456.462,330.246,457,328.2z"/>
	</g>
	<g>
		<path fill-rule="evenodd" clip-rule="evenodd" fill="#E89619" d="M642.552,454.439c3.627,0.925,5.402,3.971,4.45,7.621
			c-0.881,3.349-4.146,5.324-7.5,4.534c-3.413-0.802-5.46-4.238-4.587-7.693C635.82,455.317,638.909,453.511,642.552,454.439z"/>
	</g>
	<polyline fill="none" stroke="#E89619" stroke-miterlimit="10" points="676.256,297.337 728.271,358.804 640.985,460.483 
		460.333,329.333 	"/>
</g>
<g>
	<polyline fill="none" stroke="#E89619" stroke-miterlimit="10" points="370.07,338.582 448.459,526.328 511.268,478.003 
		574.987,319.282 	"/>
	<path fill-rule="evenodd" clip-rule="evenodd" fill="#E89619" d="M446.976,532.44c-3.413-0.802-5.46-4.238-4.587-7.693
		c0.905-3.584,3.994-5.39,7.637-4.462c3.627,0.925,5.402,3.971,4.45,7.621C453.595,531.254,450.33,533.23,446.976,532.44"/>
	<g>
		<path fill-rule="evenodd" clip-rule="evenodd" fill="#E89619" d="M576.554,313.238c3.627,0.925,5.402,3.971,4.45,7.621
			c-0.881,3.349-4.146,5.324-7.5,4.534c-3.412-0.802-5.46-4.238-4.587-7.693C569.822,314.116,572.911,312.31,576.554,313.238z"/>
	</g>
	<g>
		<path fill-rule="evenodd" clip-rule="evenodd" fill="#E89619" d="M512.835,471.959c3.627,0.925,5.402,3.971,4.45,7.621
			c-0.881,3.349-4.146,5.324-7.5,4.534c-3.412-0.802-5.46-4.238-4.587-7.693C506.103,472.837,509.192,471.031,512.835,471.959z"/>
	</g>
</g>
<g>
	<polyline fill-rule="evenodd" clip-rule="evenodd" fill="none" stroke="#E89619" stroke-miterlimit="10" points="618.302,351.99 
		785.557,297.816 821.305,352.41 	"/>
	<path fill-rule="evenodd" clip-rule="evenodd" fill="#E89619" d="M781.913,297.235c0.531-2.04,2.289-3.05,4.302-2.473
		c1.903,0.542,2.859,2.203,2.387,4.146c-0.487,2.013-2.305,3.167-4.227,2.688C782.404,301.104,781.375,299.281,781.913,297.235z"/>
	<g>
		<path fill-rule="evenodd" clip-rule="evenodd" fill="#E89619" d="M899.282,521.507c0.441-1.789,2.539-2.98,4.403-2.506
			c1.927,0.487,2.929,2.125,2.496,4.067c-0.472,2.11-2.09,3.151-4.158,2.67C900.112,525.292,898.833,523.319,899.282,521.507z"/>
	</g>
	
		<line fill-rule="evenodd" clip-rule="evenodd" fill="none" stroke="#E89619" stroke-miterlimit="10" x1="901.677" y1="520.622" x2="821.305" y2="351.99"/>
</g>
<linearGradient id="white_text_background_gradient_1_" gradientUnits="userSpaceOnUse" x1="632.5" y1="447" x2="632.5" y2="337">
	<stop  offset="0" style="stop-color:#FFFFFF;stop-opacity:0"/>
	<stop  offset="0.0716" style="stop-color:#FFFFFF;stop-opacity:0.1413"/>
	<stop  offset="0.5064" style="stop-color:#FFFFFF"/>
	<stop  offset="0.9302" style="stop-color:#FFFFFF;stop-opacity:0.1413"/>
	<stop  offset="1" style="stop-color:#FFFFFF;stop-opacity:0"/>
</linearGradient>
<rect id="white_text_background_gradient" x="364" y="337" fill-rule="evenodd" clip-rule="evenodd" fill="url(#white_text_background_gradient_1_)" width="537" height="110"/>
<g id="Flask">
	<g id="flask_connections">
		<g>
			<path fill-rule="evenodd" clip-rule="evenodd" fill="#E89619" d="M774.297,388.942c-0.542,2.085-2.339,3.116-4.396,2.527
				c-1.945-0.554-2.921-2.251-2.439-4.236c0.498-2.057,2.355-3.236,4.32-2.746C773.794,384.989,774.846,386.852,774.297,388.942z"/>
		</g>
		<g>
			<path fill-rule="evenodd" clip-rule="evenodd" fill="#E89619" d="M761.117,399.107c-0.451,1.828-2.594,3.045-4.499,2.56
				c-1.969-0.498-2.993-2.171-2.551-4.156c0.482-2.156,2.136-3.22,4.248-2.728C760.268,395.239,761.575,397.256,761.117,399.107z"/>
		</g>
		<polyline fill-rule="evenodd" clip-rule="evenodd" fill="none" stroke="#E89619" stroke-miterlimit="10" points="757.587,398.22 
			769.4,409.756 770.891,388.005 		"/>
		<g>
			<path fill-rule="evenodd" clip-rule="evenodd" fill="#0071BC" d="M771.271,404.694c3.195,0.815,4.758,3.498,3.92,6.713
				c-0.776,2.95-3.652,4.69-6.607,3.994c-3.006-0.706-4.81-3.733-4.041-6.777C765.341,405.467,768.062,403.876,771.271,404.694z"/>
		</g>
	</g>
	<path id="flask_outline" fill="none" stroke="#036093" stroke-width="2" stroke-miterlimit="10" d="M759.903,349.944h-4.138
		l0.806,1.074l0.806,1.074l0.806,1.074l0.806,1.074v5.758v5.758v5.758v5.758c0,0-0.784,2.05-1.964,5.143s-2.756,7.231-4.34,11.407
		c-1.584,4.176-3.176,8.39-4.387,11.638c-1.211,3.247-2.043,5.527-2.106,5.834c-0.278,0.771-0.484,1.557-0.609,2.323
		c-0.126,0.766-0.172,1.514-0.13,2.209c0.042,0.695,0.171,1.337,0.395,1.894c0.224,0.556,0.544,1.027,0.966,1.378h12.152h26.86
		c1.689-1.405,1.733-4.719,0.622-7.803c-0.251-1.227-12.797-34.022-12.797-34.022v-23.031l3.224-4.294h-12.833H759.903"/>
</g>
<g id="alchemy_js_text">
	<text transform="matrix(1 0 0 1 808.6365 418.8052)" fill="#0071BC" font-family="'SourceSansPro-Regular'" font-size="100">js</text>
	<text transform="matrix(1 0 0 1 370.5926 419.4543)" fill="#0071BC" font-family="'SourceSansPro-Regular'" font-size="100">alchemy </text>
</g>
<g id="y-bubble">
	<path fill-rule="evenodd" clip-rule="evenodd" fill="#E89619" d="M729.838,352.761c3.627,0.925,5.402,3.971,4.45,7.621
		c-0.881,3.349-4.146,5.324-7.5,4.534c-3.413-0.802-5.46-4.238-4.587-7.693C723.107,353.639,726.196,351.833,729.838,352.761z"/>
</g>
<g id="a-bubble">
	<path fill-rule="evenodd" clip-rule="evenodd" fill="#E89619" d="M371.637,332.538c3.627,0.925,5.402,3.971,4.45,7.621
		c-0.881,3.349-4.146,5.324-7.5,4.534c-3.413-0.802-5.46-4.238-4.587-7.693C364.905,333.416,367.994,331.61,371.637,332.538z"/>
</g>
<path id="m-bubble" fill-rule="evenodd" clip-rule="evenodd" fill="#E89619" d="M619.869,346.476
	c3.627,0.925,5.402,3.971,4.45,7.621c-0.881,3.349-4.146,5.324-7.5,4.534c-3.412-0.802-5.46-4.238-4.587-7.693
	C613.138,347.354,616.227,345.548,619.869,346.476z"/>
<g id="j-bubble">
	<path fill-rule="evenodd" clip-rule="evenodd" fill="#E89619" d="M822.872,348.366c3.627,0.925,5.402,3.971,4.45,7.621
		c-0.881,3.349-4.146,5.324-7.5,4.534c-3.413-0.802-5.46-4.238-4.587-7.693C816.141,349.244,819.23,347.438,822.872,348.366z"/>
</g>
</svg>
